<svg xmlns="http://www.w3.org/2000/svg" fill="none" viewBox="0 0 53 29" width="53"><path fill="#fff" fill-rule="evenodd" d="M42 13c4 0 7 3 7 7v2h3v-2c0-6-5-10-10-10h-2v3h2ZM27 3c5 0 9 4 9 8v2h3v-2c0-6-5-11-12-11h-1v3h1ZM6 13c-1 0-3 1-3 3v2H0v-2c0-3 3-6 6-6h2v3H6ZM33 25H20v-3h13v3Z" clip-rule="evenodd"></path><path fill="#fff" d="M13 6c0-1 1-3 3-3h8V0h-8c-3 0-6 3-6 6v2h3V6Z"></path><path fill="#fff" fill-rule="evenodd" d="M34 13H10v-3h24v3ZM0 20h3v3H0v-3ZM11 26a3 3 0 1 1 0-6 3 3 0 0 1 0 6Zm0 3a6 6 0 1 1 0-12 6 6 0 0 1 0 12ZM41 26a3 3 0 1 1 0-6 3 3 0 0 1 0 6Zm0 3a6 6 0 1 1 0-12 6 6 0 0 1 0 12Z" clip-rule="evenodd"></path></svg>